<svg id="Layer_1" data-name="Layer 1" xmlns="http://www.w3.org/2000/svg" xmlns:xlink="http://www.w3.org/1999/xlink" width="580" height="312" viewBox="0 0 580 312"><defs><style>.cls-1,.cls-16,.cls-17{fill:none;}.cls-2{fill:url(#linear-gradient);}.cls-23,.cls-3{fill:#0747a6;}.cls-12,.cls-3{opacity:0.15;}.cls-12,.cls-14,.cls-22,.cls-23,.cls-26,.cls-27,.cls-3{isolation:isolate;}.cls-4{fill:#0052cc;}.cls-5{fill:url(#linear-gradient-2);}.cls-6{fill:url(#linear-gradient-3);}.cls-7{fill:url(#linear-gradient-4);}.cls-8{fill:url(#linear-gradient-5);}.cls-9{fill:#ffc400;}.cls-10{fill:#b3bac5;}.cls-11{fill:#8777d9;}.cls-12{fill:url(#linear-gradient-6);}.cls-13{fill:url(#linear-gradient-7);}.cls-14{opacity:0.8;fill:url(#linear-gradient-8);}.cls-15{fill:#57d9a3;}.cls-16{stroke:#dfe1e5;stroke-width:1.11px;}.cls-16,.cls-17{stroke-miterlimit:10;}.cls-17{stroke:#ffc400;stroke-width:1.1px;}.cls-18{fill:#8993a4;}.cls-19{fill:url(#linear-gradient-9);}.cls-20{fill:url(#linear-gradient-10);}.cls-21{fill:url(#radial-gradient);}.cls-22,.cls-26,.cls-27{opacity:0.25;}.cls-22{fill:url(#linear-gradient-11);}.cls-23{opacity:0.1;}.cls-24{fill:url(#linear-gradient-12);}.cls-25{fill:#fff;}.cls-26{fill:url(#linear-gradient-13);}.cls-27{fill:url(#linear-gradient-14);}.cls-28{fill:#cf9e76;}.cls-29{fill:#ffab00;}.cls-30{fill:#b08874;}.cls-31{fill:#172b4d;}.cls-32{fill:url(#linear-gradient-15);}.cls-33{fill:url(#linear-gradient-16);}.cls-34{fill:#a27f68;}.cls-35{fill:url(#linear-gradient-17);}.cls-36,.cls-44{fill:#091e42;}.cls-37{fill:url(#linear-gradient-18);}.cls-38{fill:url(#linear-gradient-19);}.cls-39{fill:#8c715d;}.cls-40{clip-path:url(#clip-path);}.cls-41{fill:url(#linear-gradient-20);}.cls-42{fill:url(#linear-gradient-21);}.cls-43{clip-path:url(#clip-path-2);}.cls-44{opacity:0.1;}</style><linearGradient id="linear-gradient" x1="149.165" y1="21.933" x2="189.595" y2="230.853" gradientTransform="matrix(1, 0, 0, -1, 8.6, 328.29)" gradientUnits="userSpaceOnUse"><stop offset="0" stop-color="#f4f5f7"/><stop offset="1" stop-color="#fff"/></linearGradient><linearGradient id="linear-gradient-2" x1="177.282" y1="211.319" x2="-21.618" y2="-31.781" gradientTransform="matrix(1, 0, 0, -1, 8.6, 328.29)" gradientUnits="userSpaceOnUse"><stop offset="0" stop-color="#f4f5f7"/><stop offset="1" stop-color="#dfe1e5"/></linearGradient><linearGradient id="linear-gradient-3" x1="309.111" y1="321.131" x2="-42.029" y2="-108.049" gradientTransform="matrix(1, 0, 0, -1, 8.6, 328.29)" gradientUnits="userSpaceOnUse"><stop offset="0.05" stop-color="#f4f5f7"/><stop offset="0.32" stop-color="#edeff1"/><stop offset="0.95" stop-color="#dfe1e5"/></linearGradient><linearGradient id="linear-gradient-4" x1="521.988" y1="530.005" x2="3.058" y2="-104.245" gradientTransform="matrix(1, 0, 0, -1, 8.6, 328.29)" gradientUnits="userSpaceOnUse"><stop offset="0.09" stop-color="#f4f5f7"/><stop offset="0.95" stop-color="#dfe1e5"/></linearGradient><linearGradient id="linear-gradient-5" x1="791.938" y1="669.806" x2="1.078" y2="-121.054" gradientTransform="matrix(1, 0, 0, -1, 0, 334)" xlink:href="#linear-gradient-2"/><linearGradient id="linear-gradient-6" x1="227.055" y1="206.805" x2="354.469" y2="206.805" gradientTransform="matrix(0.99, -0.05, 0, -1.01, 13.55, 384.91)" gradientUnits="userSpaceOnUse"><stop offset="0" stop-color="#0052cc"/><stop offset="1" stop-color="#0052cc" stop-opacity="0"/></linearGradient><linearGradient id="linear-gradient-7" x1="234.745" y1="210.325" x2="362.149" y2="210.325" gradientTransform="matrix(0.99, -0.05, 0, -1.01, 13.55, 384.91)" gradientUnits="userSpaceOnUse"><stop offset="0" stop-color="#8777d9"/><stop offset="1" stop-color="#8777d9" stop-opacity="0"/></linearGradient><linearGradient id="linear-gradient-8" x1="250.488" y1="186.751" x2="317.728" y2="186.751" gradientTransform="matrix(1, -0.05, 0, -1, 0, 384.5)" gradientUnits="userSpaceOnUse"><stop offset="0" stop-color="#57d9a3"/><stop offset="1" stop-color="#57d9a3" stop-opacity="0"/></linearGradient><linearGradient id="linear-gradient-9" x1="262" y1="278.71" x2="273.21" y2="291.91" gradientTransform="matrix(1, -0.05, 0, -1, 0, 384.5)" gradientUnits="userSpaceOnUse"><stop offset="0" stop-color="#36b37e"/><stop offset="0.26" stop-color="#4bc793"/><stop offset="0.74" stop-color="#6ce6b4"/><stop offset="1" stop-color="#79f2c0"/></linearGradient><linearGradient id="linear-gradient-10" x1="280.263" y1="277.833" x2="291.263" y2="290.783" xlink:href="#linear-gradient-9"/><radialGradient id="radial-gradient" cx="-1665.546" cy="-291.67" r="6.46" gradientTransform="matrix(0.59, 0.11, 0.08, -0.99, 1205.109, -19.5)" gradientUnits="userSpaceOnUse"><stop offset="0" stop-color="#fafbfc"/><stop offset="0.55" stop-color="#f4f5f8"/><stop offset="1" stop-color="#ebecf0"/></radialGradient><linearGradient id="linear-gradient-11" x1="431.368" y1="54.456" x2="503.108" y2="54.456" gradientTransform="matrix(1, 0, 0, -1, 0, 334)" gradientUnits="userSpaceOnUse"><stop offset="0" stop-color="#091e42"/><stop offset="0.26" stop-color="#091e42" stop-opacity="0.94"/><stop offset="0.5" stop-color="#091e42" stop-opacity="0.77"/><stop offset="0.73" stop-color="#091e42" stop-opacity="0.48"/><stop offset="0.96" stop-color="#091e42" stop-opacity="0.08"/><stop offset="1" stop-color="#091e42" stop-opacity="0"/></linearGradient><linearGradient id="linear-gradient-12" x1="474.949" y1="1065.992" x2="511.869" y2="1065.992" gradientTransform="matrix(0.382, 0.921, 0.921, -0.382, -768.167, 195.177)" gradientUnits="userSpaceOnUse"><stop offset="0" stop-color="#ff991f"/><stop offset="1" stop-color="#ffc400"/></linearGradient><linearGradient id="linear-gradient-13" x1="343.328" y1="39.236" x2="415.068" y2="39.236" xlink:href="#linear-gradient-11"/><linearGradient id="linear-gradient-14" x1="503.368" y1="53.466" x2="554.208" y2="53.466" xlink:href="#linear-gradient-11"/><linearGradient id="linear-gradient-15" x1="7286.148" y1="114.882" x2="7251.608" y2="114.882" gradientTransform="translate(7646.396 334) rotate(180)" gradientUnits="userSpaceOnUse"><stop offset="0" stop-color="#ffe380"/><stop offset="1" stop-color="#ffab00"/></linearGradient><linearGradient id="linear-gradient-16" x1="449.698" y1="160.148" x2="459.008" y2="160.148" gradientTransform="matrix(1, 0, 0, -1, 0, 334)" gradientUnits="userSpaceOnUse"><stop offset="0" stop-color="#72594b"/><stop offset="0.56" stop-color="#8c715d"/></linearGradient><linearGradient id="linear-gradient-17" x1="5111.929" y1="149.015" x2="5100.029" y2="137.055" gradientTransform="translate(5551.716 334) rotate(180)" gradientUnits="userSpaceOnUse"><stop offset="0" stop-color="#ffc400"/><stop offset="0.01" stop-color="#ffc202"/><stop offset="0.15" stop-color="#ffb00f"/><stop offset="0.32" stop-color="#ffa318"/><stop offset="0.54" stop-color="#ff9b1d"/><stop offset="1" stop-color="#ff991f"/></linearGradient><linearGradient id="linear-gradient-18" x1="5096.594" y1="126.036" x2="5096.594" y2="159.278" gradientTransform="translate(5551.716 334) rotate(180)" gradientUnits="userSpaceOnUse"><stop offset="0" stop-color="#ff991f"/><stop offset="0.77" stop-color="#ffc400"/></linearGradient><linearGradient id="linear-gradient-19" x1="452.513" y1="196.236" x2="452.358" y2="168.013" gradientTransform="matrix(1, 0, 0, 1, 0, 0)" xlink:href="#linear-gradient-18"/><clipPath id="clip-path"><path class="cls-1" d="M453.358,172.364c-3.48.5-3.83.59-4.22.23a7.375,7.375,0,0,1-.91-2.58c-.21-.79-.36-1.45-.47-1.92-.24.07-.91.26-1.11,0s0-.53.22-1a15.1,15.1,0,0,0,.57-2v-.4a7.272,7.272,0,0,1,.28-2.23,7.064,7.064,0,0,1,2-3,6.228,6.228,0,0,1,7-.88,6.578,6.578,0,0,1,3.12,5.07,14.147,14.147,0,0,1-.7,4.26h0l-.09.27c-.15.5-.92,1-.92,1-.67.43-.81.26-1.18.54-.67.5-.45,1.21-.93,1.85S455.1,172.094,453.358,172.364Z"/></clipPath><linearGradient id="linear-gradient-20" x1="5086.845" y1="145.621" x2="5093.595" y2="141.681" gradientTransform="translate(5551.716 334) rotate(180)" gradientUnits="userSpaceOnUse"><stop offset="0" stop-color="#ffc400"/><stop offset="1" stop-color="#ff991f"/></linearGradient><linearGradient id="linear-gradient-21" x1="500.438" y1="70.316" x2="537.158" y2="70.316" gradientTransform="matrix(1, 0, 0, -1, 0, 334)" gradientUnits="userSpaceOnUse"><stop offset="0" stop-color="#0057d8"/><stop offset="1" stop-color="#3384ff"/></linearGradient><clipPath id="clip-path-2"><circle class="cls-1" cx="518.798" cy="263.684" r="18.36"/></clipPath></defs><title>portfolio-580x312</title><polygon class="cls-2" points="372.588 253.184 9.748 303.764 9.838 13.854 372.648 32.894 372.588 253.184"/><path class="cls-3" d="M210.658,88.094c0,5.6-4,10.14-9,10.14s-9.12-4.61-9.12-10.29,4.1-10.21,9.12-10.14S210.658,82.524,210.658,88.094Z"/><path class="cls-3" d="M270.178,88.594c0,5.35-3.66,9.69-8.21,9.69s-8.31-4.4-8.31-9.82,3.74-9.76,8.31-9.69S270.178,83.234,270.178,88.594Z"/><path class="cls-3" d="M288.058,88.734c0,5.28-3.56,9.55-8,9.55s-8.09-4.33-8.09-9.68,3.64-9.62,8.09-9.55S288.058,83.454,288.058,88.734Z"/><path class="cls-4" d="M372.738,50.034,9.738,36.4V11.274c.15-2,1.11-3.48,4.5-3.29l355.59,20.11a2.78,2.78,0,0,1,2.907,2.647q0,.077,0,.153Z"/><polygon class="cls-5" points="372.628 98.734 9.808 100.504 9.808 129.014 372.628 120.394 372.628 98.734"/><polygon class="cls-6" points="372.618 143.044 9.798 158.814 9.788 187.384 372.608 164.754 372.618 143.044"/><polygon class="cls-7" points="372.608 187.364 9.778 217.144 9.768 245.704 372.598 209.074 372.608 187.364"/><polygon class="cls-8" points="372.588 232.164 9.758 276.094 9.748 304.604 372.588 253.824 372.588 232.164"/><polyline class="cls-9" points="234.108 69.684 228.328 76.234 222.498 69.474"/><polygon class="cls-10" points="134.558 69.844 28.258 68.064 28.258 58.824 134.558 61.274 134.558 69.844"/><polygon class="cls-10" points="101.808 117.834 28.238 119.114 28.248 109.884 101.808 109.064 101.808 117.834"/><polygon class="cls-10" points="64.988 146.654 28.228 148.014 28.238 138.774 64.998 137.654 64.988 146.654"/><polygon class="cls-10" points="118.768 171.824 28.218 176.904 28.228 167.664 118.768 163.144 118.768 171.824"/><polygon class="cls-10" points="113.248 200.274 28.218 206.744 28.218 197.504 113.248 191.564 113.248 200.274"/><polygon class="cls-10" points="115.598 226.374 28.548 234.294 28.558 225.044 115.608 217.664 115.598 226.374"/><polygon class="cls-10" points="179.368 116.484 150.208 116.994 150.208 108.514 179.368 108.194 179.368 116.484"/><polygon class="cls-10" points="171.268 142.754 150.198 143.524 150.208 135.044 171.268 134.404 171.268 142.754"/><polygon class="cls-10" points="172.918 168.784 150.188 170.054 150.198 161.584 172.918 160.444 172.918 168.784"/><polygon class="cls-10" points="179.148 195.254 150.188 197.464 150.188 188.984 179.148 186.954 179.148 195.254"/><polygon class="cls-10" points="172.018 221.054 150.178 223.124 150.178 214.644 172.018 212.704 172.018 221.054"/><polygon class="cls-3" points="279.168 120.114 199.588 121.564 199.588 111.404 279.168 110.564 279.168 120.114"/><polygon class="cls-3" points="309.538 142.864 199.578 146.994 199.578 136.834 309.538 133.554 309.538 142.864"/><polygon class="cls-3" points="258.158 194.184 220.998 197.044 220.998 187.054 258.158 184.484 258.158 194.184"/><polygon class="cls-3" points="344.638 209.424 295.278 214.144 295.288 204.724 344.638 200.384 344.638 209.424"/><polygon class="cls-9" points="286.498 115.584 206.908 117.024 206.908 106.864 286.498 106.034 286.498 115.584"/><polygon class="cls-11" points="316.868 138.334 206.898 142.464 206.898 132.294 316.868 129.024 316.868 138.334"/><polygon class="cls-12" points="364.278 162.454 238.148 169.624 238.148 159.764 364.288 153.564 364.278 162.454"/><polygon class="cls-13" points="371.888 158.504 245.758 165.684 245.758 155.824 371.888 149.624 371.888 158.504"/><polygon class="cls-14" points="317.688 185.804 250.488 190.774 250.528 181.014 317.728 176.314 317.688 185.804"/><polygon class="cls-15" points="265.478 189.654 228.318 192.514 228.328 182.514 265.488 179.944 265.478 189.654"/><polygon class="cls-11" points="351.958 204.884 302.608 209.604 302.608 200.184 351.958 195.854 351.958 204.884"/><polygon class="cls-10" points="365.508 78.074 331.888 77.634 331.898 61.334 365.518 62.234 365.508 78.074"/><path class="cls-11" d="M322.578,72.984h-1.41c-2.19,0-4-1.31-4-2.85v-1.85c0-1.54,1.79-2.75,4-2.7h1.41c2.17,0,3.93,1.32,3.93,2.85v1.81C326.508,71.8,324.748,73.014,322.578,72.984Z"/><line class="cls-16" x1="189.288" y1="99.634" x2="189.228" y2="279.484"/><line class="cls-16" x1="140.018" y1="99.874" x2="139.958" y2="286.384"/><line class="cls-17" x1="228.328" y1="75.824" x2="228.258" y2="273.964"/><path class="cls-18" d="M216.308,85.454c0,5.6-4,10.14-9,10.14s-9.11-4.61-9.11-10.28,4.09-10.22,9.11-10.14S216.308,79.854,216.308,85.454Z"/><path class="cls-19" d="M275.828,85.924c0,5.35-3.66,9.69-8.21,9.69s-8.31-4.4-8.31-9.82,3.73-9.76,8.31-9.69S275.828,80.574,275.828,85.924Z"/><path class="cls-20" d="M293.708,86.094c0,5.28-3.56,9.56-8,9.55s-8.09-4.33-8.09-9.68,3.63-9.62,8.09-9.55S293.708,80.784,293.708,86.094Z"/><path class="cls-21" d="M212.1,83.424a1,1,0,0,0-.22-.62l-.76-.86a.79.79,0,0,0-.54-.26.707.707,0,0,0-.54.25l-3.77,4.16-1.72-2a.721.721,0,0,0-1.016-.075.749.749,0,0,0-.074.075l-.77.86a1,1,0,0,0,0,1.23l3,3.44h0a.721.721,0,0,0,.44.24h.1a.751.751,0,0,0,.55-.25l5.06-5.65A.932.932,0,0,0,212.1,83.424Z"/><ellipse class="cls-22" cx="467.238" cy="279.544" rx="35.87" ry="7.14"/><polygon class="cls-23" points="569.618 259.214 481.888 275.704 472.998 271.224 561.698 255.814 569.618 259.214"/><polygon class="cls-23" points="520.638 290.604 478.548 302.524 470.448 298.454 512.908 286.894 520.638 290.604"/><polygon class="cls-23" points="496.458 285.174 427.138 299.324 419.768 295.164 489.368 281.204 496.458 285.174"/><polygon class="cls-9" points="496.618 285.084 427.918 297.624 420.558 293.474 489.528 281.124 496.618 285.084"/><polygon class="cls-15" points="520.788 290.514 478.228 300.604 470.138 296.534 513.058 286.794 520.788 290.514"/><polygon class="cls-11" points="569.788 259.164 482.208 273.734 473.318 269.254 561.868 255.764 569.788 259.164"/><circle class="cls-24" cx="403.598" cy="245.864" r="18.46" transform="translate(96.26 604.867) rotate(-80.783)"/><path class="cls-25" d="M411.868,249.544l-4.64-3.73,3.73-4.65a.33.33,0,0,0-.044-.465l-.006-.005-3.41-2.74a.339.339,0,0,0-.47.05l-3.74,4.65-4.64-3.73a.35.35,0,0,0-.48.05l-2.73,3.41a.33.33,0,0,0,.043.464l.007.006,4.65,3.73-3.74,4.65a.34.34,0,0,0,.05.47l3.41,2.74a.33.33,0,0,0,.465-.044l0-.006,3.74-4.65,4.65,3.74a.34.34,0,0,0,.47-.06l2.74-3.4A.351.351,0,0,0,411.868,249.544Z"/><ellipse class="cls-26" cx="379.198" cy="294.764" rx="35.87" ry="7.14"/><ellipse class="cls-27" cx="528.788" cy="280.534" rx="25.42" ry="5.2"/><path class="cls-28" d="M394.428,194.014c.82,3.42,3.16,12.53,2.46,15.93a43.115,43.115,0,0,1-3.84,10.68c-1.67,3.13-2.8,6.11-2.16,7a7.72,7.72,0,0,1,1.11,4.84c-.14,1.11.66,2,.81,3.11a2.772,2.772,0,0,1-.07,1.11.29.29,0,0,1-.17.24.325.325,0,0,1-.26-.08,1.334,1.334,0,0,1-.34-.33,14.5,14.5,0,0,0-.69-1.29c-.32-.39-.62-.78-.92-1.19a1.876,1.876,0,0,0-1.08-.76c-.33-.05-.66,0-1-.08-.69-.09-1.38-.35-1.47-1.14-.19-1.75,4.11-20.58,4.14-22.49s-1.8-10-3.61-11.71S394.428,194.014,394.428,194.014Z"/><path class="cls-29" d="M394.858,191.164a4.431,4.431,0,0,0-1.11-1.55,4.372,4.372,0,0,0-2.52-1l-3.52,1,1.3,10.21a15.236,15.236,0,0,0,6.79-1.21C395.748,195.5,395.848,193.294,394.858,191.164Z"/><path class="cls-9" d="M378.378,274.094a48.433,48.433,0,0,0,.58,7.51c.24,1.5.59,3.21,1,6.23.16,1.2.27,2.19.35,2.85h-.87a10.191,10.191,0,0,0-1.59.11,5.14,5.14,0,0,0-.79.22c-.45.15-.58.22-.62.35s0,.19.14.45c.63.9,1.68.85,3.14,1.67a6.011,6.011,0,0,0,1.37.78,2.12,2.12,0,0,0,1.76,0,1.51,1.51,0,0,0,.81-1.7c-.09-.88-.16-2-.17-3.26a50.39,50.39,0,0,1,.66-7.58c.18-1.42.52-4,1-7.95Z"/><path class="cls-28" d="M389.238,218.414a2.282,2.282,0,0,0-.06-.65,41.813,41.813,0,0,0-1.18-5.67,15.91,15.91,0,0,0-.5-1.73,13.534,13.534,0,0,0-.84-1.92,14.035,14.035,0,0,1-1.59.42c-.6.13-1.06.17-1.31.21-1.41.21-4.09.55-11.34,1.13a21.713,21.713,0,0,0-1.36,2,24.458,24.458,0,0,0-2.87,7.25c-4.91,21.2-5.9,29.5-5.9,29.5h0q-1.06,6.309-2.14,12.61-.1,3.639-.32,7.49-.25,4.329-.63,8.43l6.5.8a37.476,37.476,0,0,0,.52-6c0-2.9-.35-4.65.17-7.47a18.733,18.733,0,0,1,.88-3.18,47.923,47.923,0,0,0,2.11-4.75c1.72-4.49,2-7.25,2.8-10.36,1.69-6.59,5-12.41,5.87-12.13h0C379.528,227.854,384.718,223.194,389.238,218.414Z"/><path class="cls-28" d="M378.478,233.514c1.06.42-3.59,11.63-.82,23a21.321,21.321,0,0,1,1,4.47,25.743,25.743,0,0,1-.21,5.3,45.322,45.322,0,0,0,0,7.78l6.72.14a54.846,54.846,0,0,0,.12-11.76c-.13-1.27-.29-2.49-.49-3.65a48.67,48.67,0,0,0,1.43-8c.21-2.24.55-7.62.57-9.74a20.2,20.2,0,0,1,.16-2.52,6.273,6.273,0,0,1,.16-1c.48-2.84,2.53-14.51,2.19-19.5C384.868,222.684,379.858,227.194,378.478,233.514Z"/><path class="cls-28" d="M391.7,194.024a5.4,5.4,0,0,0-2.14-6.56,8.027,8.027,0,0,0-1.18-.6,67.643,67.643,0,0,0-17.13-2.77c-2.91-.05-3.56.05-5-.35-2.25-.65-3.25-1.65-6.41-3.49a57.853,57.853,0,0,0-5.39-2.82c-.63-2.88-1.17-5.22-1.54-6.8-1.05-4.48-1.45-5.87-1.82-8.3a48.159,48.159,0,0,1-.56-6.6,11.541,11.541,0,0,1-1.52-.18h-.23c-.42-.07-1-.19-1.77-.37a99.669,99.669,0,0,0-.13,10.5,97.275,97.275,0,0,0,1.82,15.26c6.4,6.26,11.57,9.09,15.31,10.51,1.69.64,5.65,2.06,7.42,5.73a9.266,9.266,0,0,1,.74,3.59,22.3,22.3,0,0,1-1.86,10.53q4.05.42,8.19.79c3.43.31,6.82.58,10.17.83a49.268,49.268,0,0,1,1.83-15.21C390.868,196.384,391.278,195.164,391.7,194.024Z"/><path class="cls-30" d="M378.638,177.834a6.5,6.5,0,0,1,2,5.36,5.816,5.816,0,0,1-1.73,3.32l9.8,1.29a4.449,4.449,0,0,1,.12-6Z"/><path class="cls-31" d="M386.648,167.094c-1.1-1.33-4.68-.71-6.92.61a7.5,7.5,0,0,0-3.37,3.41c-.57,1.37-.6,3-1.85,3.75a3.288,3.288,0,0,0-.93.62,3,3,0,0,0-.52,2.59c.1.38.39,1.12,3.07,2.64l.49.28a3.811,3.811,0,0,0,5-1.3C387.3,171.154,387.558,168.194,386.648,167.094Z"/><path class="cls-28" d="M382.768,166.8a20.851,20.851,0,0,0-3.64,5c-.1.24-.13.35-.62.57s-1.12.27-1,.64.74.92.78,1.24l-1.08,5,1.87,1,6.31,3.28c-.06-.29-1.87-7.35-1.82-7.74s.19-1.2-.22-1.45-.78-4.31-.93-4.87a2.09,2.09,0,0,1,.08-1.42C382.648,167.254,382.768,166.8,382.768,166.8Z"/><path class="cls-31" d="M382.718,166.844a8.525,8.525,0,0,0-.28,4.82c.17,1,.79,4.73-1.06,7.78a3.259,3.259,0,0,0,1.123,4.471q.115.069.237.129a10.4,10.4,0,0,0,2.85,1,6.331,6.331,0,0,0,3.27-.21c2.27-.88,3.21-3.38,3.75-4.78a12.146,12.146,0,0,0,.51-6.3,12.788,12.788,0,0,0-.54-1.92C391.618,169.344,387.3,165.144,382.718,166.844Z"/><path class="cls-28" d="M349.268,148.564c-.18.13-.22,0-.72.17a3.126,3.126,0,0,0-1.13.67,3.319,3.319,0,0,0-.78,1.94,6.62,6.62,0,0,0-.07,2.43,5.159,5.159,0,0,0,.74,2.09c.71,1.06,2.06,2,2.73,1.62.35-.21.33-.7.49-1.75.34-2.22.77-2.13.93-3.57s-.31-1.39-.74-5c-.17-1.41-.23-2.52-.49-2.54s-.37.54-.45.78C349.248,146.964,349.838,148.154,349.268,148.564Z"/><path class="cls-32" d="M364,191.414c3.3,1.68,6.13,3.06,7.42,5.73a10.254,10.254,0,0,1,.74,3.59c.15,7.55-11,44-11.91,47.06a36.25,36.25,0,0,0,12.88,5.76,35.382,35.382,0,0,0,16.14-.13,174.331,174.331,0,0,0,.64-22.18c-.09-12.89-1.84-19.27.1-30.09a40.269,40.269,0,0,1,4.78-10.4,12.882,12.882,0,0,0-4-3.56,13.516,13.516,0,0,0-4.76-1.5c-5.23-.93-9.44-1.26-10.07-1.31-2.4-.18-5.45-.38-9-.57Z"/><path class="cls-29" d="M389.7,248.634c.07-1.13.13-2.22.17-3.28a41.012,41.012,0,0,1-14.1-.09,57.779,57.779,0,0,1-13.4-4.47c-.31,1-.59,2-.85,2.83a45.594,45.594,0,0,0,13.56,5.14A36.868,36.868,0,0,0,389.7,248.634Z"/><path class="cls-29" d="M375.768,238.4a57.3,57.3,0,0,1-11.63-3.66c-.32,1.09-.62,2.14-.92,3.15a50.878,50.878,0,0,0,11.86,4,43.364,43.364,0,0,0,14.89.5v-3A56.89,56.89,0,0,1,375.768,238.4Z"/><path class="cls-9" d="M359.408,274.8c-.32,4.47-.44,8.06-.5,10.45-.12,5.55.06,7.54-1.41,9.07-2.13,2.22-6,1.74-6,2.54,0,.41,1,.71,1.44.84,1.82.55,2.65-.07,4.82-.09,2.5,0,3.4.76,4.23,0a3,3,0,0,0,.68-2.45,15.42,15.42,0,0,1-.13-1.62,30.175,30.175,0,0,1,1.51-7.94,36.671,36.671,0,0,0,1.9-9.26Z"/><path class="cls-31" d="M355.428,295.634a22.9,22.9,0,0,0,2.87,0,3.833,3.833,0,0,0,2-1,4.177,4.177,0,0,1,2-.94h.19a11.24,11.24,0,0,0,.13,1.49,3,3,0,0,1-.68,2.45c-.83.73-1.73-.06-4.23,0-2.17,0-3,.64-4.82.09-.45-.13-1.44-.43-1.44-.84C351.478,296.284,353.5,296.374,355.428,295.634Z"/><path class="cls-31" d="M377.848,290.824h0a3.838,3.838,0,0,1,.93-.12h.53a4.756,4.756,0,0,1,.56,0c-.47.09-.85.27-.87.49s.38.44.94.73a1,1,0,0,0,.59.19c.46,0,.47-.57,1-.75a4.97,4.97,0,0,1,.78-.08c.166.008.333.008.5,0a5.131,5.131,0,0,0,.7-.2,13.037,13.037,0,0,0,.12,1.51,1.51,1.51,0,0,1-.81,1.7,2.12,2.12,0,0,1-1.76,0,6.011,6.011,0,0,1-1.37-.78c-1.46-.82-2.51-.77-3.14-1.67a.566.566,0,0,1-.14-.45C376.458,291.294,376.538,291.154,377.848,290.824Z"/><path class="cls-33" d="M449.7,174.824a6.32,6.32,0,0,0,3.3,4.27,5.572,5.572,0,0,0,6-1,17.9,17.9,0,0,1-.71-5.56,17.642,17.642,0,0,1,.68-4.39l-8,2.06a17.655,17.655,0,0,1,.11,2.57c0,1.09-.12,1.5-.43,1.77A1.333,1.333,0,0,1,449.7,174.824Z"/><path class="cls-34" d="M417.088,181.934l-4.61,1.07a.511.511,0,0,0-.49.32.6.6,0,0,0,.06.59.729.729,0,0,0-.38.61.741.741,0,0,0,.55.72.689.689,0,0,0-.1.53,1.1,1.1,0,0,1,1.323.818,1.126,1.126,0,0,1,.027.182.85.85,0,0,0,.63.29c1.71,0,2.79.08,2.79.08a3.558,3.558,0,0,0,1.94-.62,2.951,2.951,0,0,0,.65-.75c.85.5,1.15.31,1.23.25.39-.31.2-1.45-.48-2.87Z"/><path class="cls-34" d="M436,188.354a2.055,2.055,0,0,0-1.52.27,32.426,32.426,0,0,0-4.31-2.21c-2.92-1.24-4.56-1.44-7.7-2.9-1.2-.56-2.14-1.09-2.72-1.43-.13,1.12-.25,2.23-.37,3.35a97.943,97.943,0,0,0,9,7.36,13.029,13.029,0,0,0,3.22,1.71c1.38.5,5,1.82,6.35.14S437.938,188.824,436,188.354Z"/><path class="cls-35" d="M435.058,195.494a4.755,4.755,0,0,0,2.05.16c1.66-.24,2.73-1.39,3.87-2.65,2.11-2.32,3.68-4.07,5-5.52l-.3-11.84a24.558,24.558,0,0,0-2.46,3.09c-2,3-2.75,5.49-4.85,6.15a3.756,3.756,0,0,0-.87.32,6.838,6.838,0,0,0-3.19,3.8A8.1,8.1,0,0,0,435.058,195.494Z"/><path class="cls-36" d="M453.578,281.624a10.39,10.39,0,0,1,.86-.92,11.468,11.468,0,0,1,3.34-2.21,12.24,12.24,0,0,0,4.31-3.79l3.88.62a14.085,14.085,0,0,1,.69,2.46,13.721,13.721,0,0,1,.21,2.76h-2.49a1,1,0,0,0-.62-.52c-.47-.07-.89.47-1,.64-1.21,1.4-4.09,1.4-5.77,1.39A13.03,13.03,0,0,1,453.578,281.624Z"/><path class="cls-36" d="M436.558,280.324a11.375,11.375,0,0,1,.85-.92,11.678,11.678,0,0,1,3.34-2.21,12.074,12.074,0,0,0,4.31-3.78l3.88.62a13.889,13.889,0,0,1,.69,2.46,13.721,13.721,0,0,1,.21,2.76h-2.49a1,1,0,0,0-.62-.52c-.47-.06-.89.47-1,.65-1.22,1.4-4.09,1.39-5.78,1.39A12.644,12.644,0,0,1,436.558,280.324Z"/><path class="cls-36" d="M445.448,203.664c-.9,7.12-1.61,14.64-2.06,22.54a335.893,335.893,0,0,0,.7,47.71,7.534,7.534,0,0,0,5.76.22c.13-6.29.17-11.65.15-16.24v-4.06c0-2.2-.08-4.74-.16-7.56q1.23-12,2.45-23.9c.5,3,.87,5.49,1.1,7.18.74,5.3.91,7.66,1.72,12.65.38,2.34.7,4,.86,4.86,1.12,6.06,2.63,15.19,4.3,28.35a14.14,14.14,0,0,0,6.72,0l-2.07-36.12q-.72-10.26-1.7-20.88-.611-6.75-1.33-13.33Z"/><path class="cls-37" d="M447.858,174.724a21.6,21.6,0,0,0,2.36,0l2.71,3.45,5.37-3.45,7.23,4.67c-.15,1.23-.38,3-.67,5.12-.63,4.67-.9,7-1.31,8.94s-.92,3.81-1.3,6.66a48.33,48.33,0,0,0-.4,5l-9,2.85c-.33-1-.66-2-1-3.05l-1.69,2.46-4.69-3.37c0-.55,0-1.39.09-2.42s.18-1.44.2-2.17a10.9,10.9,0,0,0-.3-2.77c-1-4.57,1.24-6.21.21-11.15a37.033,37.033,0,0,1-.87-4.5,11.334,11.334,0,0,1,.09-3.34,2.87,2.87,0,0,1,2.807-2.931C447.75,174.722,447.8,174.722,447.858,174.724Z"/><path class="cls-38" d="M452.748,177.994l-1.49,27.74.57-.82.36,1.14,1.53-28.34-.79.5Z"/><path class="cls-34" d="M419.448,181.984l-.81-.33a5.115,5.115,0,0,0-2.22-.38l-3.29.15h0a1.27,1.27,0,0,0,1.14,1.29l1.28.1,3.45,2.28,1.53-1.43h0A1.83,1.83,0,0,0,419.448,181.984Z"/><path class="cls-34" d="M463.388,197.014a2.13,2.13,0,0,0,.22,1.39,32.381,32.381,0,0,0-1.83,3.93c-1,2.67-1.2,4.17-2.41,7-.46,1.09-.9,1.95-1.18,2.48l2.78.33a87.005,87.005,0,0,0,6.1-8.23,12.41,12.41,0,0,0,1.42-2.94c.42-1.26,1.51-4.59.12-5.79S463.778,195.2,463.388,197.014Z"/><path class="cls-34" d="M458.118,210.344l-.48.61a5.1,5.1,0,0,0-.93,1.81l-.79,2.89h0a1.05,1.05,0,0,0,1.33-.63l.44-1.07,2.77-2.38-.69-1.72h0A1.479,1.479,0,0,0,458.118,210.344Z"/><path class="cls-29" d="M452.938,178.174l1.28,2.51,4.81-5.45-.66-1.33-1,1.45Z"/><path class="cls-29" d="M451.1,174.014c-.05.68-.14.84-.22.93a.912.912,0,0,1-.3.23l2.35,3-1.77,1.52c-.71-1.65-1.42-3.31-2.14-5l1.11-1.14,1-.29C451.128,173.624,451.108,173.854,451.1,174.014Z"/><path class="cls-39" d="M453.358,172.364c-3.48.5-3.83.59-4.22.23a7.375,7.375,0,0,1-.91-2.58c-.21-.79-.36-1.45-.47-1.92-.24.07-.91.26-1.11,0s0-.53.22-1a15.1,15.1,0,0,0,.57-2v-.4a7.272,7.272,0,0,1,.28-2.23,7.064,7.064,0,0,1,2-3,6.228,6.228,0,0,1,7-.88,6.578,6.578,0,0,1,3.12,5.07,14.147,14.147,0,0,1-.7,4.26h0l-.09.27c-.15.5-.92,1-.92,1-.67.43-.81.26-1.18.54-.67.5-.45,1.21-.93,1.85S455.1,172.094,453.358,172.364Z"/><g class="cls-40"><path class="cls-31" d="M453.418,164.164a10.191,10.191,0,0,1,.41,2.37h1c.32-.39.7-.74,1-.64.71.21.3,2.48,1.22,2.95.7.35,1.75-.55,1.88-.66,1.5-1.28,1.93-3.89,1.28-6a6.582,6.582,0,0,0-3.17-3.69,7.177,7.177,0,0,0-5.57-.56,7.267,7.267,0,0,0-4.25,3.69c-.14.28-.63,1.31-.31,1.64.16.16.52.13,1.92-.51,2.22-1,2.51-1.47,3.07-1.28C452.708,161.754,453,162.844,453.418,164.164Z"/></g><path class="cls-41" d="M461.678,178.684a3.32,3.32,0,0,1,2.94.18,4.406,4.406,0,0,1,1.78,2.47c1.42,4,1.39,5.75,2.45,9.08.59,1.84,1.26,3.47.83,5.63a7.815,7.815,0,0,1-.39,1.34,7.129,7.129,0,0,0-3.63.52,7.563,7.563,0,0,0-2.94,2.25,3.091,3.091,0,0,1-1.34-1.71,3.442,3.442,0,0,1,.29-2.24c.54-1.25.49-4.45-2-12.91A3.739,3.739,0,0,1,461.678,178.684Z"/><polygon class="cls-34" points="457.978 211.884 457.688 213.944 461.538 212.744 461.948 210.984 457.978 211.884"/><polygon class="cls-9" points="485.808 244.264 403.218 173.174 409.598 168.124 491.758 239.724 485.808 244.264"/><circle class="cls-42" cx="518.798" cy="263.684" r="18.36"/><g class="cls-43"><rect class="cls-25" x="514.305" y="270.474" width="5.45" height="5.45" rx="1.86" transform="translate(145.606 724.865) rotate(-78.42)"/><path class="cls-25" d="M518.048,268.214h0a2.819,2.819,0,0,1-2.22-3.23l1.69-10.29a3.241,3.241,0,0,1,3.731-2.661c.036.007.073.013.109.021h0a3.229,3.229,0,0,1,2.519,3.81c-.009.044-.018.087-.029.13l-2.48,10.1A2.831,2.831,0,0,1,518.048,268.214Z"/><path class="cls-44" d="M530.7,277.648a15.329,15.329,0,0,1-5.842-2.934c-6.69-5.49-4.54-14.06-11.24-20.24a17.813,17.813,0,0,0-7.523-4.027,18.347,18.347,0,0,0,24.605,27.2Z"/></g></svg>